<svg width="32" height="32" viewBox="0 0 32 32" fill="none" xmlns="http://www.w3.org/2000/svg">
<path d="M4 0.5H28C29.933 0.5 31.5 2.067 31.5 4V28C31.5 29.933 29.933 31.5 28 31.5H4C2.067 31.5 0.5 29.933 0.5 28V4C0.5 2.067 2.067 0.5 4 0.5Z" stroke="white" stroke-opacity="0.3"/>
<path fill-rule="evenodd" clip-rule="evenodd" d="M16 19.1248C14.2741 19.1248 12.875 17.7257 12.875 15.9998C12.875 14.2739 14.2741 12.8748 16 12.8748C17.7259 12.8748 19.125 14.2739 19.125 15.9998C19.125 17.7257 17.7259 19.1248 16 19.1248ZM14.125 15.9998C14.125 17.0354 14.9644 17.8748 16 17.8748C17.0355 17.8748 17.875 17.0354 17.875 15.9998C17.875 14.9643 17.0355 14.1248 16 14.1248C14.9644 14.1248 14.125 14.9643 14.125 15.9998Z" fill="white"/>
<path fill-rule="evenodd" clip-rule="evenodd" d="M16 9.5415C13.8578 9.5415 12.0216 10.4843 10.6002 11.594C9.17757 12.7046 8.12601 14.0163 7.5378 14.8411L7.49345 14.9029C7.28249 15.1963 7.04163 15.5313 7.04163 15.9998C7.04163 16.4683 7.28249 16.8033 7.49345 17.0967L7.5378 17.1586C8.12601 17.9834 9.17757 19.295 10.6002 20.4057C12.0216 21.5153 13.8578 22.4582 16 22.4582C18.1421 22.4582 19.9783 21.5153 21.3997 20.4057C22.8224 19.295 23.8739 17.9834 24.4621 17.1586L24.5065 17.0967C24.7174 16.8033 24.9583 16.4683 24.9583 15.9998C24.9583 15.5313 24.7174 15.1963 24.5065 14.9029L24.4621 14.8411C23.8739 14.0163 22.8224 12.7046 21.3997 11.594C19.9783 10.4843 18.1421 9.5415 16 9.5415ZM8.55552 15.5669C9.10569 14.7954 10.0769 13.5883 11.3694 12.5793C12.6632 11.5693 14.2344 10.7915 16 10.7915C17.7655 10.7915 19.3367 11.5693 20.6305 12.5793C21.923 13.5883 22.8942 14.7954 23.4444 15.5669C23.5805 15.7577 23.6453 15.8509 23.6839 15.9251C23.7084 15.9723 23.7084 15.9852 23.7083 15.9978L23.7083 15.9998L23.7083 16.0018C23.7084 16.0145 23.7084 16.0274 23.6839 16.0746C23.6453 16.1488 23.5805 16.2419 23.4444 16.4328C22.8942 17.2043 21.923 18.4114 20.6305 19.4204C19.3367 20.4304 17.7655 21.2082 16 21.2082C14.2344 21.2082 12.6632 20.4304 11.3694 19.4204C10.0769 18.4114 9.10569 17.2043 8.55552 16.4328C8.41942 16.2419 8.35464 16.1488 8.31603 16.0746C8.29148 16.0274 8.29155 16.0145 8.29162 16.0018L8.29163 15.9998L8.29162 15.9978C8.29155 15.9852 8.29148 15.9723 8.31603 15.9251C8.35464 15.8509 8.41942 15.7577 8.55552 15.5669Z" fill="white"/>
</svg>
