<svg width="106" height="42" viewBox="0 0 106 42" fill="none" xmlns="http://www.w3.org/2000/svg">
<rect width="106" height="42" fill="white"/>
<path d="M9.96172 25C8.50972 25 7.92172 24.412 7.92172 23.152V23.008H7.86172C7.62172 23.896 7.11772 24.268 6.28972 24.268C5.18572 24.268 4.57372 23.644 4.57372 22.576C4.57372 21.484 5.20972 20.8 6.58972 20.068L7.86172 19.396V18.76H8.95372V22.888C8.95372 23.464 9.22972 23.644 9.85372 23.644H10.2497V24.712L9.96172 25ZM6.55372 22.912C7.51372 22.912 7.86172 22.708 7.86172 22.096V20.476L6.78172 21.028C5.92972 21.472 5.55772 21.76 5.55772 22.252C5.55772 22.72 5.82172 22.912 6.55372 22.912ZM8.34172 17.788C7.98172 17.788 7.74172 17.572 7.74172 17.104C7.74172 16.624 7.98172 16.42 8.34172 16.42H8.52172C8.88172 16.42 9.13372 16.624 9.13372 17.104C9.13372 17.572 8.88172 17.788 8.52172 17.788H8.34172ZM6.64972 17.788C6.28972 17.788 6.04972 17.572 6.04972 17.104C6.04972 16.624 6.28972 16.42 6.64972 16.42H6.82972C7.18972 16.42 7.44172 16.624 7.44172 17.104C7.44172 17.572 7.18972 17.788 6.82972 17.788H6.64972ZM20.618 25C20.03 25 19.598 24.904 19.214 24.58C18.746 24.868 18.098 25 17.282 25H13.778C12.602 25 11.966 24.568 11.762 23.632H11.69C11.498 24.616 11.03 25 9.962 25V23.932L10.25 23.644H10.646C11.318 23.644 11.642 23.332 11.642 22.696V21.832H12.686V22.696C12.686 23.128 12.806 23.404 13.082 23.536L13.67 22.528C14.846 20.488 16.058 19.804 17.57 19.804C19.262 19.804 20.198 20.8 20.198 22.444C20.198 22.888 20.138 23.272 20.018 23.584C20.21 23.632 20.402 23.644 20.618 23.644H20.906V24.712L20.618 25ZM17.282 23.644C18.614 23.644 19.202 23.356 19.202 22.468C19.202 21.604 18.722 21.172 17.75 21.172H17.39C16.046 21.172 15.338 21.484 14.498 22.78L13.982 23.572L14.018 23.644H17.282ZM20.6143 25V23.932L20.9023 23.644H21.2983C21.9703 23.644 22.2943 23.332 22.2943 22.696V20.872H23.3383V22.696C23.3383 23.344 23.6383 23.644 24.2743 23.644H24.7303V24.712L24.4303 25C23.2543 25 22.6183 24.568 22.4143 23.632H22.3423C22.1503 24.616 21.6823 25 20.6143 25ZM22.7143 19.648C22.3543 19.648 22.1143 19.432 22.1143 18.964C22.1143 18.484 22.3543 18.28 22.7143 18.28H22.8943C23.2543 18.28 23.5063 18.484 23.5063 18.964C23.5063 19.432 23.2543 19.648 22.8943 19.648H22.7143ZM24.4464 25V23.932L24.7344 23.644C25.2264 23.644 25.4904 23.62 25.7184 23.512C25.6944 23.38 25.6824 23.248 25.6824 23.092C25.6824 22.204 26.2584 21.46 27.3864 20.752L28.0464 20.344H29.2584L30.1584 22.756C30.4224 23.464 30.6264 23.644 31.1664 23.644H31.4544V24.712L31.1664 25C30.2904 25 29.8344 24.76 29.4504 24.112L29.3784 24.124V25H27.9024C26.8344 25 26.1504 24.616 25.8504 23.956H25.7784C25.5624 24.664 25.1664 25 24.4464 25ZM26.6064 22.96C26.6064 23.44 27.0024 23.644 27.7224 23.644H29.2224C29.1624 23.512 29.1144 23.368 29.0544 23.212L28.4184 21.508L27.6984 21.868C27.0624 22.192 26.6064 22.54 26.6064 22.96ZM31.1612 25V23.932L31.4492 23.644H31.8692C32.5652 23.644 32.8172 23.344 32.8172 22.696V16.12H33.9452V22.696C33.9452 24.268 33.3452 25 31.8692 25H31.1612ZM35.6053 25V16.12H36.7213V25H35.6053ZM39.6706 27.88V26.524H40.1266C41.7466 26.524 42.2746 25.66 42.2746 24.364C42.2746 23.932 42.2146 23.464 42.1426 22.996L41.8906 21.544L42.9226 21.352L43.0906 22.36C43.2226 23.116 43.2946 23.788 43.2946 24.352C43.2946 26.332 42.3946 27.88 40.1386 27.88H39.6706ZM46.7899 25C45.2179 25 44.5819 24.412 44.5819 22.888V16.12H45.6979V22.78C45.6979 23.44 45.9979 23.644 46.7059 23.644H47.1019V24.712L46.8019 25H46.7899ZM46.8175 25V23.932L47.1055 23.644H49.0495L49.0615 23.596L47.5975 21.784V20.392C48.3295 20.032 49.2295 19.816 50.0335 19.816C51.6655 19.816 52.5055 20.452 52.5055 21.652C52.5055 22.504 52.1455 22.864 51.1975 23.62L51.2095 23.644H52.9975V24.712L52.7095 25H52.2055C51.4735 25 50.7055 24.82 50.0935 24.412C49.4815 24.82 48.7735 25 48.0535 25H46.8175ZM48.5455 21.388V21.436L50.1895 23.392L50.5735 23.068C51.1975 22.54 51.5215 22.324 51.5215 21.904C51.5215 21.412 51.0415 21.184 50.0215 21.184C49.5415 21.184 49.0255 21.256 48.5455 21.388ZM52.712 25V23.932L53 23.644H53.24C53.924 23.644 54.212 23.464 54.524 22.828L55.016 21.832L55.916 22.288L55.364 23.356L55.448 23.404C55.928 23.68 56.36 23.8 56.828 23.8C57.548 23.8 57.872 23.5 57.872 22.696V21.832H58.916V22.696C58.916 23.476 59.144 23.776 59.66 23.776H59.84C60.284 23.776 60.524 23.536 60.524 22.996C60.524 22.756 60.488 22.372 60.416 21.892L60.308 21.256L61.34 21.1L61.436 21.724C61.496 22.204 61.532 22.648 61.532 22.996C61.532 24.4 60.92 25.144 59.744 25.144C58.724 25.144 58.172 24.676 58.004 23.74H57.932C57.8 24.664 57.332 25.144 56.6 25.144C56.132 25.144 55.676 24.976 55.016 24.58L54.692 24.388C54.224 24.88 53.66 25 52.712 25ZM59.168 20.608C58.808 20.608 58.556 20.392 58.556 19.924C58.556 19.444 58.808 19.24 59.168 19.24H59.336C59.696 19.24 59.948 19.444 59.948 19.924C59.948 20.392 59.696 20.608 59.336 20.608H59.168ZM57.464 20.608C57.104 20.608 56.864 20.392 56.864 19.924C56.864 19.444 57.104 19.24 57.464 19.24H57.644C58.004 19.24 58.256 19.444 58.256 19.924C58.256 20.392 58.004 20.608 57.644 20.608H57.464ZM58.316 19.024C57.968 19.024 57.716 18.82 57.716 18.352C57.716 17.896 57.968 17.692 58.316 17.692H58.496C58.844 17.692 59.084 17.896 59.084 18.352C59.084 18.82 58.844 19.024 58.496 19.024H58.316Z" fill="#6C737F"/>
<path d="M101.977 25.4111C101.604 25.1856 100.924 24.8055 99.9854 24.4898C98.6314 24.0259 96.7418 23.678 94.5031 24.0581C93.7509 24.187 92.9566 24.3996 92.1321 24.7153C92.0539 24.7475 91.9757 24.7733 91.8974 24.8055C91.4762 24.973 91.061 25.1792 90.6397 25.4047C90.2787 25.598 89.9236 25.8106 89.5686 26.0425C88.7562 26.5644 87.9558 27.1572 87.1795 27.8014C86.2949 22.0737 86.7282 16.7583 86.9328 14.1489C86.9328 14.136 86.9508 14.1296 86.9628 14.136C88.8584 15.4117 88.3289 18.9747 87.9257 19.9991C87.9197 20.0184 87.9437 20.0313 87.9618 20.0184C90.3208 17.0353 89.1714 13.7366 88.6839 12.9054C88.6719 12.8861 88.696 12.8668 88.714 12.8797C89.057 13.176 89.3339 13.4917 89.5686 13.8139C90.2967 14.8125 90.5675 15.8885 90.6397 16.8421C90.6758 17.3446 90.6638 17.8085 90.6397 18.208C90.6337 18.3175 90.6277 18.4141 90.6157 18.5108C90.6157 18.5237 90.6277 18.5301 90.6397 18.5237C90.6457 18.5237 90.6518 18.5237 90.6518 18.5172C91.2896 17.1771 91.5966 15.154 90.6397 13.1889C90.381 12.6542 90.0319 12.1258 89.5686 11.6169C89.4362 11.4687 89.2917 11.3269 89.1413 11.1787C89.1292 11.1659 89.1413 11.1401 89.1593 11.1465C89.3038 11.1852 89.4362 11.2303 89.5686 11.2754C89.9718 11.4236 90.3268 11.6297 90.6397 11.881C91.3558 12.448 91.8433 13.2211 92.1321 14.0329C92.3728 14.703 92.4812 15.3924 92.4812 16.0045C92.4812 16.0302 92.5113 16.0303 92.5173 16.0109C92.9626 14.2649 92.6918 12.9441 92.1321 11.9841C91.735 11.2947 91.1873 10.7922 90.6397 10.4378C90.2666 10.1994 89.8935 10.0319 89.5686 9.92882C89.376 9.86439 89.2075 9.82573 89.057 9.8064C89.033 9.8064 89.039 9.76775 89.063 9.76775C89.2376 9.74842 89.4061 9.74197 89.5686 9.73553C89.9657 9.72909 90.3208 9.76775 90.6397 9.82573C91.2716 9.95459 91.765 10.1865 92.1321 10.4571C92.7339 10.8888 93.0348 11.3978 93.1371 11.604C93.1431 11.6233 93.1732 11.6104 93.1732 11.5911C93.089 10.6698 92.6918 9.94815 92.1382 9.43271C91.7109 9.03325 91.1873 8.75621 90.6457 8.58869C90.2907 8.48561 89.9296 8.42763 89.5746 8.42118C89.0931 8.41474 88.6298 8.49849 88.2386 8.67889C88.2206 8.68534 88.2085 8.66601 88.2146 8.64668C88.5636 8.11192 89.057 7.78978 89.5746 7.61582C89.9356 7.49985 90.3027 7.45474 90.6457 7.48051C90.9767 7.49984 91.2776 7.57715 91.5243 7.69957C91.5424 7.70601 91.5544 7.68669 91.5424 7.66736C91.2716 7.33878 90.9647 7.08105 90.6457 6.88777C90.3027 6.68159 89.9417 6.55918 89.5746 6.51408C88.6177 6.39811 87.6429 6.83623 86.9929 7.88642C86.9869 7.89931 86.9689 7.89931 86.9628 7.88642C86.8365 7.64803 86.7161 7.38387 86.6078 7.10682C86.349 6.46253 86.1384 5.74093 86.0241 5.01933C86.018 4.99356 85.994 4.99356 85.994 5.01933C85.8796 5.74093 85.663 6.46898 85.4042 7.11327C85.2899 7.39032 85.1756 7.64804 85.0492 7.87998C85.0432 7.89287 85.0251 7.89287 85.0191 7.87998C83.8877 6.04375 81.7635 6.08241 80.4696 7.66736C80.4576 7.68025 80.4696 7.70601 80.4877 7.69957C81.3482 7.26145 82.9791 7.39031 83.7975 8.64668C83.8095 8.66601 83.7915 8.68534 83.7734 8.67889C82.5157 8.11192 80.5659 8.47916 79.5248 9.8064C79.1517 10.2767 78.899 10.8759 78.8328 11.5911C78.8328 11.6104 78.8569 11.6233 78.8689 11.604C78.9471 11.4429 79.1517 11.095 79.5248 10.7406C80.1326 10.1672 81.1918 9.58735 82.943 9.76131C82.967 9.76775 82.967 9.79996 82.949 9.79996C82.0523 9.91594 80.2049 10.7728 79.5248 12.7315C79.2239 13.5948 79.1457 14.6772 79.4827 16.0045C79.4887 16.0238 79.5188 16.0238 79.5188 15.998C79.5188 15.9658 79.5188 15.9401 79.5248 15.9078C79.5429 14.1296 80.4937 11.7457 82.8467 11.1401C82.8647 11.1336 82.8768 11.1594 82.8647 11.1723C80.2349 13.6464 80.4937 16.7003 81.3543 18.5043C81.3663 18.5237 81.3904 18.5172 81.3904 18.4979C81.276 17.132 81.1858 14.703 83.292 12.8668C83.31 12.8539 83.3341 12.8732 83.3221 12.8926C82.8346 13.7301 81.6852 17.0225 84.0442 20.0055C84.0563 20.0249 84.0863 20.012 84.0803 19.9862C83.6831 18.9682 83.1536 15.3988 85.0432 14.1231C85.0552 14.1167 85.0733 14.1232 85.0733 14.136C85.2779 16.7454 85.7111 22.0608 84.8265 27.7886C83.304 26.5386 81.6973 25.4433 80.1086 24.799C79.91 24.7217 79.7174 24.6509 79.5309 24.58C77.888 24.0001 76.3836 23.8391 75.0717 23.9035C72.9654 24.0001 71.3527 24.6766 70.4681 25.147C70.2875 25.2436 70.1371 25.3338 70.0227 25.4047C69.9746 25.4369 70.0107 25.5078 70.0588 25.4884C70.1972 25.4433 70.3296 25.3982 70.4681 25.3596C72.0868 24.8699 73.6214 24.7411 75.0717 24.8764C76.6544 25.0245 78.1408 25.4884 79.5309 26.1585C81.4806 27.0992 83.2438 28.4393 84.8386 29.8567C82.5879 31.9571 80.6863 33.9995 79.5309 34.7147C79.4707 34.7469 79.4165 34.7856 79.3624 34.8178C79.0855 34.4119 78.6041 34.1799 78.0806 34.3023C77.6232 34.4119 77.2501 34.8049 77.1478 35.2881C77.0575 35.7198 77.1599 36.1901 77.3885 36.4349C78.0023 37.0921 78.7124 37.1372 79.5309 36.77C81.0895 36.0677 83.0272 33.8642 85.4042 31.5319C85.6028 31.3386 85.8014 31.1389 86.006 30.9456C86.2106 31.1389 86.4092 31.3322 86.6078 31.5254C87.685 32.5821 88.6719 33.6129 89.5746 34.4892C89.9477 34.85 90.3027 35.185 90.6457 35.4814C91.1753 35.9453 91.6748 36.3254 92.1382 36.5896C93.0468 37.105 93.8352 37.1694 94.5092 36.5316C94.5453 36.4994 94.5814 36.4672 94.6175 36.4285C94.7739 36.261 94.9545 35.7133 94.8582 35.2817C94.804 35.0304 94.6777 34.8049 94.5031 34.6309C94.3467 34.4698 94.1421 34.3474 93.9254 34.2959C93.4019 34.1735 92.9205 34.4054 92.6436 34.8113C92.4872 34.7276 92.3187 34.6116 92.1321 34.4763C91.7049 34.1606 91.2054 33.716 90.6397 33.1877C90.3027 32.872 89.9477 32.5241 89.5686 32.1568C88.8344 31.4417 88.028 30.6556 87.1735 29.8503C87.9317 29.1738 88.7321 28.5166 89.5686 27.911C89.9176 27.6597 90.2726 27.4149 90.6397 27.1829C91.1272 26.8737 91.6206 26.5902 92.1321 26.326C92.8964 25.933 93.6847 25.6044 94.5031 25.3531C96.2002 24.8313 98.0236 24.6573 99.9854 24.9923C100.623 25.1019 101.273 25.2629 101.941 25.482C101.989 25.5142 102.025 25.4433 101.977 25.4111Z" fill="#9DA4AE"/>
</svg>
