<svg width="32" height="32" viewBox="0 0 32 32" fill="none" xmlns="http://www.w3.org/2000/svg">
<path d="M4 0.5H28C29.933 0.5 31.5 2.067 31.5 4V28C31.5 29.933 29.933 31.5 28 31.5H4C2.067 31.5 0.5 29.933 0.5 28V4C0.5 2.067 2.067 0.5 4 0.5Z" stroke="white" stroke-opacity="0.3"/>
<path d="M15.9393 24.1244C15.8901 24.1244 15.8409 24.1186 15.7909 24.1069C15.4559 24.0252 15.2501 23.6869 15.3318 23.3519C15.416 23.0061 15.8184 21.8211 17.4551 21.1102C17.4742 21.1019 17.4942 21.0944 17.5142 21.0877C17.5384 21.0769 17.5667 21.0644 17.6009 21.0527C18.2976 20.796 19.1601 20.3594 19.4876 20.0961C19.5035 20.0836 19.5201 20.0711 19.5376 20.0603L21.8668 18.5403C21.9076 18.5028 21.9068 18.4844 21.9059 18.4778C21.9026 18.4178 21.8351 18.2919 21.6926 18.1994C20.6468 17.5036 19.6801 17.9077 18.2118 18.6561C18.1109 18.7077 18.0101 18.7594 17.9093 18.8094C17.1151 19.2027 16.1368 19.1444 15.3526 18.6578C14.6085 18.1961 14.1643 17.4269 14.1643 16.601C14.1643 15.7752 14.6085 15.0003 15.4143 14.4536C16.5443 13.6878 18.2418 13.4453 19.3809 13.8836L21.1826 14.4094C21.3509 14.4594 21.5251 14.4403 21.6742 14.3561C21.8192 14.2744 21.9218 14.1428 21.9635 13.9844C22.0418 13.6919 21.8784 13.3894 21.5842 13.2777L19.6201 12.5452C19.6201 12.5452 19.6168 12.5435 19.6143 12.5427L18.8726 12.3152C18.2626 12.1327 17.8218 12.0652 17.4926 12.1052C16.9368 12.1744 15.4501 12.8311 14.6435 13.2286C14.3343 13.3811 13.9593 13.2544 13.8068 12.9444C13.6543 12.6352 13.7809 12.2602 14.0909 12.1077C14.3234 11.9927 16.3926 10.9827 17.3409 10.8644C17.8492 10.8027 18.4509 10.8844 19.2359 11.1194L19.9943 11.3519C20.0026 11.3544 20.011 11.3569 20.0193 11.3602C20.026 11.3627 20.0335 11.3652 20.0401 11.3677L20.0518 11.3719C20.2043 11.4269 20.3676 11.4194 20.5126 11.351C20.6643 11.2802 20.7776 11.1519 20.8326 10.9911C20.9401 10.6819 20.7876 10.3453 20.4851 10.2211L18.9026 9.56687L18.7676 9.5169C18.3201 9.3519 18.0734 9.26187 17.8509 9.20937C17.5742 9.14603 17.2676 9.11689 16.9426 9.12522L16.9193 9.12693C16.8376 9.13193 16.7918 9.13526 16.6126 9.17193C16.606 9.1736 16.5993 9.17443 16.5926 9.17527C16.4151 9.20527 16.3159 9.23855 16.0976 9.31272L15.6693 9.45855C14.2434 9.94355 13.6526 10.1444 13.0393 10.5902C11.4135 11.7761 10.4276 13.126 10.1734 13.9385C9.90259 14.8052 9.90259 15.8702 9.90259 17.9935V23.5019C9.90259 23.8469 9.62259 24.1269 9.27759 24.1269C8.93259 24.1269 8.65259 23.8469 8.65259 23.5019V17.9935C8.65259 15.7444 8.65256 14.6152 8.98006 13.5661C9.4484 12.0727 11.0035 10.5285 12.3035 9.58021C13.0718 9.02272 13.8051 8.77276 15.2668 8.2761L15.6976 8.12937C15.9334 8.04937 16.1051 7.99187 16.3735 7.94521C16.611 7.89771 16.7076 7.8886 16.8368 7.88026L16.8701 7.87774C16.8793 7.87774 16.8876 7.87687 16.8967 7.87603C17.3326 7.86437 17.7485 7.90358 18.1335 7.99192C18.4326 8.06192 18.7051 8.16189 19.1993 8.34356L19.3459 8.39776C19.3534 8.40109 19.3618 8.40354 19.3693 8.40688L20.9618 9.06524C21.8768 9.44107 22.3401 10.4661 22.0151 11.3986C21.9418 11.6144 21.8309 11.8111 21.6909 11.9819L22.026 12.1069C22.926 12.4477 23.4184 13.3919 23.1734 14.3044C23.0459 14.7903 22.7318 15.196 22.2893 15.4452C21.8426 15.6969 21.3251 15.7552 20.8318 15.6085L19.0059 15.0761C18.9868 15.0702 18.9676 15.0636 18.9493 15.0569C18.1876 14.7528 16.9176 14.9469 16.1176 15.4886C15.6526 15.8036 15.4167 16.1785 15.4167 16.601C15.4167 16.9977 15.6342 17.3603 16.0142 17.5961C16.4334 17.8561 16.9467 17.8927 17.3542 17.6911C17.4501 17.6427 17.5485 17.5927 17.6476 17.5427C18.9893 16.8594 20.6593 16.0086 22.3843 17.1561C22.8418 17.4544 23.1326 17.9261 23.1576 18.4144C23.1801 18.8436 22.9951 19.2394 22.6384 19.5285C22.6218 19.5419 22.6043 19.5544 22.5868 19.5661L20.2493 21.0919C19.7468 21.4844 18.7509 21.9636 18.0459 22.2236L18.0343 22.2302C17.9959 22.2502 17.956 22.2661 17.9151 22.2777C17.6768 22.3877 16.7426 22.8661 16.5518 23.6494C16.4826 23.9352 16.2267 24.1269 15.9451 24.1269L15.9393 24.1244ZM18.0068 22.2344C18.0068 22.2344 18.0068 22.2344 18.0059 22.2344C18.0059 22.2344 18.0059 22.2344 18.0068 22.2344Z" fill="white"/>
</svg>
