<svg width="32" height="32" viewBox="0 0 32 32" fill="none" xmlns="http://www.w3.org/2000/svg">
<path d="M4 0.5H28C29.933 0.5 31.5 2.067 31.5 4V28C31.5 29.933 29.933 31.5 28 31.5H4C2.067 31.5 0.5 29.933 0.5 28V4C0.5 2.067 2.067 0.5 4 0.5Z" stroke="white" stroke-opacity="0.3"/>
<path fill-rule="evenodd" clip-rule="evenodd" d="M11.625 16.0002C11.625 13.5839 13.5838 11.6252 16 11.6252C18.4163 11.6252 20.375 13.5839 20.375 16.0002C20.375 18.4164 18.4163 20.3752 16 20.3752C13.5838 20.3752 11.625 18.4164 11.625 16.0002ZM16 12.8752C14.2742 12.8752 12.875 14.2743 12.875 16.0002C12.875 17.7261 14.2742 19.1252 16 19.1252C17.7259 19.1252 19.125 17.7261 19.125 16.0002C19.125 14.2743 17.7259 12.8752 16 12.8752Z" fill="white"/>
<path d="M20.5899 12.2502C21.0501 12.2502 21.4232 11.8771 21.4232 11.4168C21.4232 10.9566 21.0501 10.5835 20.5899 10.5835H20.5824C20.1222 10.5835 19.7491 10.9566 19.7491 11.4168C19.7491 11.8771 20.1222 12.2502 20.5824 12.2502H20.5899Z" fill="white"/>
<path fill-rule="evenodd" clip-rule="evenodd" d="M16.0477 7.4585C17.8733 7.45849 19.3072 7.45848 20.4267 7.60899C21.5739 7.76323 22.4841 8.08576 23.1993 8.80092C23.9144 9.51609 24.237 10.4263 24.3912 11.5735C24.5417 12.693 24.5417 14.1269 24.5417 15.9525V16.0478C24.5417 17.8734 24.5417 19.3073 24.3912 20.4268C24.237 21.574 23.9144 22.4842 23.1993 23.1994C22.4841 23.9146 21.5739 24.2371 20.4267 24.3913C19.3072 24.5418 17.8733 24.5418 16.0477 24.5418H15.9524C14.1268 24.5418 12.6929 24.5418 11.5734 24.3913C10.4262 24.2371 9.51597 23.9146 8.8008 23.1994C8.08564 22.4842 7.76311 21.574 7.60887 20.4268C7.45835 19.3073 7.45836 17.8734 7.45837 16.0478V15.9525C7.45836 14.1269 7.45835 12.693 7.60887 11.5735C7.76311 10.4263 8.08564 9.51609 8.8008 8.80092C9.51597 8.08576 10.4262 7.76323 11.5734 7.60899C12.6929 7.45848 14.1268 7.45849 15.9524 7.4585H16.0477ZM11.74 8.84784C10.7313 8.98345 10.1289 9.2406 9.68469 9.68481C9.24048 10.129 8.98333 10.7315 8.84772 11.7401C8.7097 12.7667 8.70837 14.1165 8.70837 16.0002C8.70837 17.8838 8.7097 19.2337 8.84772 20.2602C8.98333 21.2689 9.24048 21.8713 9.68469 22.3155C10.1289 22.7597 10.7313 23.0169 11.74 23.1525C12.7665 23.2905 14.1164 23.2918 16 23.2918C17.8837 23.2918 19.2335 23.2905 20.2601 23.1525C21.2687 23.0169 21.8712 22.7597 22.3154 22.3155C22.7596 21.8713 23.0168 21.2689 23.1524 20.2602C23.2904 19.2337 23.2917 17.8838 23.2917 16.0002C23.2917 14.1165 23.2904 12.7667 23.1524 11.7401C23.0168 10.7315 22.7596 10.129 22.3154 9.68481C21.8712 9.2406 21.2687 8.98345 20.2601 8.84784C19.2335 8.70982 17.8837 8.7085 16 8.7085C14.1164 8.7085 12.7665 8.70982 11.74 8.84784Z" fill="white"/>
</svg>
