<svg width="56" height="56" viewBox="0 0 56 56" fill="none" xmlns="http://www.w3.org/2000/svg">
<path d="M0 28C0 12.536 12.536 0 28 0C43.464 0 56 12.536 56 28C56 43.464 43.464 56 28 56C12.536 56 0 43.464 0 28Z" fill="#F3FCF6"/>
<path fill-rule="evenodd" clip-rule="evenodd" d="M26.7508 18.4085C26.7506 18.4088 26.7509 18.4082 26.7508 18.4085L24.6999 22.5442C24.4821 22.9904 24.118 23.3726 23.7429 23.653C23.3671 23.934 22.8994 24.1732 22.4174 24.2557L22.4143 24.2562L18.6935 24.8795C17.6588 25.0534 17.3188 25.4641 17.2391 25.7158C17.1584 25.9707 17.2022 26.5094 17.9449 27.2583L20.8379 30.1752C21.2133 30.5537 21.464 31.0594 21.6023 31.5463C21.7407 32.0338 21.7922 32.5937 21.6774 33.1102L21.6761 33.1159L20.8479 36.7268C20.5388 38.0736 20.8509 38.5702 21.0122 38.6889C21.1691 38.8043 21.7259 38.956 22.9054 38.2503L26.3998 36.1646C26.8856 35.8796 27.4677 35.762 28.0018 35.762C28.5351 35.762 29.1174 35.8793 29.6008 36.168C29.6007 36.1679 29.6009 36.168 29.6008 36.168L33.088 38.2494C33.0878 38.2493 33.0882 38.2495 33.088 38.2494C34.2772 38.9575 34.8334 38.8063 34.9874 38.6931C35.145 38.5772 35.4571 38.0835 35.1469 36.7261L34.3175 33.1102C34.2027 32.5937 34.2542 32.0338 34.3926 31.5463C34.5309 31.0594 34.7816 30.5537 35.157 30.1752L38.05 27.2583L38.0521 27.2562C38.7997 26.5075 38.8413 25.9703 38.7606 25.7173C38.6802 25.465 38.337 25.0536 37.3014 24.8795L33.5806 24.2562C33.0936 24.1744 32.6223 23.9361 32.2434 23.6542C31.8658 23.3733 31.5012 22.9907 31.2834 22.5442L29.2308 18.4052C28.7382 17.4066 28.2386 17.2083 27.996 17.2083C27.7519 17.2083 27.2491 17.4093 26.7508 18.4085ZM30.8 17.6305C30.1844 16.3829 29.2201 15.4583 27.996 15.4583C26.7733 15.4583 25.806 16.3812 25.1846 17.6278L25.1838 17.6294L23.1307 21.7695L23.1275 21.7759C23.0651 21.9045 22.9169 22.0856 22.6951 22.2514C22.4737 22.4169 22.2596 22.507 22.1233 22.5306C22.1229 22.5307 22.1225 22.5307 22.1221 22.5308L18.4039 23.1537C17.0589 23.3797 15.9344 24.0394 15.5708 25.1874C15.2083 26.3321 15.742 27.5223 16.7024 28.4907L19.5954 31.4076C19.71 31.5231 19.8383 31.7407 19.9188 32.0243C19.9988 32.3059 20.0059 32.5624 19.9696 32.7281C19.9694 32.7289 19.9693 32.7297 19.9691 32.7304L19.1422 36.3354C19.1422 36.3355 19.1422 36.3354 19.1422 36.3354C18.798 37.835 18.9175 39.3203 19.9752 40.0985C21.0373 40.8799 22.4869 40.54 23.8039 39.752L27.2853 37.674C27.2861 37.6736 27.2868 37.6732 27.2875 37.6727C27.4435 37.582 27.7004 37.512 28.0018 37.512C28.3055 37.512 28.557 37.5829 28.7035 37.6704L32.1918 39.7525C33.5103 40.5378 34.9617 40.8838 36.0238 40.1031C37.0823 39.3251 37.1959 37.837 36.8529 36.3362L36.0258 32.7304C36.0256 32.7297 36.0255 32.7289 36.0253 32.7281C35.989 32.5624 35.9961 32.3059 36.0761 32.0243C36.1566 31.7407 36.2849 31.5231 36.3995 31.4076L39.2904 28.4928C39.2907 28.4925 39.2911 28.4921 39.2914 28.4918C40.258 27.5235 40.7934 26.3322 40.428 25.1858C40.0622 24.0385 38.9356 23.3796 37.5914 23.1537L33.8702 22.5304C33.7272 22.5063 33.5099 22.4153 33.288 22.2502C33.0658 22.0849 32.918 21.9042 32.8557 21.7759L30.8 17.6305C30.8001 17.6307 30.7999 17.6303 30.8 17.6305Z" fill="#067647"/>
</svg>
