<svg width="56" height="56" viewBox="0 0 56 56" fill="none" xmlns="http://www.w3.org/2000/svg">
<path d="M0 28C0 12.536 12.536 0 28 0C43.464 0 56 12.536 56 28C56 43.464 43.464 56 28 56C12.536 56 0 43.464 0 28Z" fill="#F3FCF6"/>
<path fill-rule="evenodd" clip-rule="evenodd" d="M27.9999 17.7917C25.2615 17.7917 23.0415 20.0117 23.0415 22.7501C23.0415 25.4885 25.2615 27.7084 27.9999 27.7084C30.7383 27.7084 32.9582 25.4885 32.9582 22.7501C32.9582 20.0117 30.7383 17.7917 27.9999 17.7917ZM24.7915 22.7501C24.7915 20.9782 26.228 19.5417 27.9999 19.5417C29.7718 19.5417 31.2082 20.9782 31.2082 22.7501C31.2082 24.522 29.7718 25.9584 27.9999 25.9584C26.228 25.9584 24.7915 24.522 24.7915 22.7501Z" fill="#067647"/>
<path d="M20.4166 20.1251C18.3225 20.1251 16.6249 21.8227 16.6249 23.9167C16.6249 26.0108 18.3225 27.7084 20.4166 27.7084C20.8998 27.7084 21.2916 27.3167 21.2916 26.8334C21.2916 26.3502 20.8998 25.9584 20.4166 25.9584C19.289 25.9584 18.3749 25.0443 18.3749 23.9167C18.3749 22.7892 19.289 21.8751 20.4166 21.8751C20.8998 21.8751 21.2916 21.4833 21.2916 21.0001C21.2916 20.5168 20.8998 20.1251 20.4166 20.1251Z" fill="#067647"/>
<path d="M20.7047 29.0879C20.6612 28.6066 20.2357 28.2518 19.7544 28.2953C18.6595 28.3944 17.5948 28.8156 16.6565 29.5382C16.6024 29.5798 16.5312 29.6316 16.4475 29.6925C16.05 29.9817 15.3714 30.4754 14.914 31.0543C14.6218 31.4242 14.3485 31.9083 14.2993 32.4905C14.2478 33.1001 14.4522 33.6923 14.8903 34.2322C15.561 35.0585 16.4813 35.8751 17.7635 35.8751C18.2468 35.8751 18.6385 35.4833 18.6385 35.0001C18.6385 34.5168 18.2468 34.1251 17.7635 34.1251C17.2974 34.1251 16.8271 33.8414 16.2491 33.1293C16.0482 32.8819 16.0356 32.7263 16.0431 32.6379C16.0529 32.5219 16.1146 32.3577 16.2873 32.1391C16.578 31.771 16.9857 31.4714 17.3819 31.1802C17.498 31.0948 17.6132 31.0102 17.7242 30.9247C18.413 30.3943 19.1651 30.1058 19.9121 30.0382C20.3934 29.9946 20.7482 29.5692 20.7047 29.0879Z" fill="#067647"/>
<path d="M34.9999 20.1251C34.5166 20.1251 34.1249 20.5168 34.1249 21.0001C34.1249 21.4833 34.5166 21.8751 34.9999 21.8751C36.1274 21.8751 37.0415 22.7892 37.0415 23.9167C37.0415 25.0443 36.1274 25.9584 34.9999 25.9584C34.5166 25.9584 34.1249 26.3502 34.1249 26.8334C34.1249 27.3167 34.5166 27.7084 34.9999 27.7084C37.0939 27.7084 38.7915 26.0108 38.7915 23.9167C38.7915 21.8227 37.0939 20.1251 34.9999 20.1251Z" fill="#067647"/>
<path d="M36.2454 28.2953C35.7641 28.2518 35.3386 28.6066 35.2951 29.0879C35.2516 29.5692 35.6064 29.9946 36.0877 30.0382C36.8347 30.1058 37.5868 30.3943 38.2756 30.9247C38.3865 31.0102 38.5017 31.0948 38.6178 31.1802C39.0141 31.4714 39.4217 31.771 39.7125 32.1391C39.8852 32.3577 39.9469 32.5219 39.9567 32.6379C39.9641 32.7263 39.9515 32.8819 39.7507 33.1293C39.1727 33.8414 38.7023 34.1251 38.2362 34.1251C37.753 34.1251 37.3612 34.5168 37.3612 35.0001C37.3612 35.4833 37.753 35.8751 38.2362 35.8751C39.5185 35.8751 40.4388 35.0585 41.1095 34.2322C41.5476 33.6923 41.752 33.1001 41.7004 32.4905C41.6512 31.9083 41.378 31.4242 41.0857 31.0543C40.6284 30.4754 39.9499 29.9817 39.5524 29.6926C39.4687 29.6317 39.3974 29.5798 39.3433 29.5382C38.405 28.8156 37.3403 28.3944 36.2454 28.2953Z" fill="#067647"/>
<path fill-rule="evenodd" clip-rule="evenodd" d="M22.971 30.8856C26.0484 28.9827 29.9517 28.9827 33.0291 30.8856C33.1198 30.9417 33.2347 31.0089 33.3667 31.0861C33.9643 31.4358 34.9132 31.9911 35.5606 32.6491C35.9672 33.0624 36.3727 33.6259 36.4466 34.3283C36.5257 35.0798 36.2068 35.7754 35.5983 36.3774C34.5931 37.372 33.3478 38.2084 31.7151 38.2084H24.2849C22.6522 38.2084 21.407 37.372 20.4018 36.3774C19.7933 35.7754 19.4743 35.0798 19.5534 34.3283C19.6274 33.6259 20.0329 33.0624 20.4395 32.6491C21.0869 31.9911 22.0356 31.4359 22.6333 31.0862C22.7653 31.0089 22.8802 30.9417 22.971 30.8856ZM32.1088 32.374C29.5954 30.8199 26.4047 30.8199 23.8913 32.374C23.7405 32.4673 23.5787 32.5627 23.4118 32.6611C22.8146 33.0132 22.1516 33.4042 21.687 33.8764C21.4012 34.1669 21.3078 34.379 21.2938 34.5115C21.285 34.5949 21.2892 34.7937 21.6326 35.1334C22.4872 35.9789 23.3134 36.4584 24.2849 36.4584H31.7151C32.6867 36.4584 33.5129 35.9789 34.3675 35.1334C34.7108 34.7937 34.715 34.5949 34.7063 34.5115C34.6923 34.379 34.5989 34.1669 34.3131 33.8764C33.8485 33.4042 33.1855 33.0133 32.5884 32.6611C32.4214 32.5627 32.2596 32.4673 32.1088 32.374Z" fill="#067647"/>
</svg>
