<svg width="32" height="32" viewBox="0 0 32 32" fill="none" xmlns="http://www.w3.org/2000/svg">
<path d="M4 0.5H28C29.933 0.5 31.5 2.067 31.5 4V28C31.5 29.933 29.933 31.5 28 31.5H4C2.067 31.5 0.5 29.933 0.5 28V4C0.5 2.067 2.067 0.5 4 0.5Z" stroke="white" stroke-opacity="0.3"/>
<path fill-rule="evenodd" clip-rule="evenodd" d="M7.04163 9.5415C7.04163 8.16079 8.16091 7.0415 9.54163 7.0415C10.9223 7.0415 12.0416 8.16079 12.0416 9.5415C12.0416 10.9222 10.9223 12.0415 9.54163 12.0415C8.16091 12.0415 7.04163 10.9222 7.04163 9.5415ZM9.54163 8.2915C8.85127 8.2915 8.29163 8.85115 8.29163 9.5415C8.29163 10.2319 8.85127 10.7915 9.54163 10.7915C10.232 10.7915 10.7916 10.2319 10.7916 9.5415C10.7916 8.85115 10.232 8.2915 9.54163 8.2915Z" fill="white"/>
<path fill-rule="evenodd" clip-rule="evenodd" d="M9.29601 13.2915H9.78726C10.1479 13.2915 10.4786 13.2914 10.7476 13.3276C11.0439 13.3674 11.357 13.4611 11.6145 13.7186C11.872 13.9762 11.9657 14.2893 12.0055 14.5855C12.0417 14.8545 12.0417 15.1852 12.0416 15.5459L12.0416 22.7038C12.0417 23.0645 12.0417 23.3952 12.0055 23.6642C11.9657 23.9604 11.872 24.2735 11.6145 24.531C11.357 24.7886 11.0439 24.8823 10.7476 24.9221C10.4786 24.9583 10.1479 24.9582 9.78725 24.9582H9.29601C8.93533 24.9582 8.60464 24.9583 8.33563 24.9221C8.03939 24.8823 7.72629 24.7886 7.46877 24.531C7.21125 24.2735 7.11754 23.9604 7.07771 23.6642C7.04155 23.3952 7.04159 23.0645 7.04163 22.7038L7.04163 15.5459C7.04159 15.1852 7.04155 14.8545 7.07771 14.5855C7.11754 14.2893 7.21125 13.9762 7.46877 13.7186C7.72629 13.4611 8.03939 13.3674 8.33563 13.3276C8.60464 13.2914 8.93533 13.2915 9.29601 13.2915ZM8.35266 14.6025L8.35469 14.6014C8.3563 14.6006 8.35906 14.5992 8.36327 14.5975C8.38142 14.59 8.42172 14.5773 8.50219 14.5664C8.67779 14.5428 8.92279 14.5415 9.3333 14.5415H9.74997C10.1605 14.5415 10.4055 14.5428 10.5811 14.5664C10.6615 14.5773 10.7018 14.59 10.72 14.5975C10.7242 14.5992 10.727 14.6006 10.7286 14.6014L10.7306 14.6025L10.7317 14.6046C10.7326 14.6062 10.7339 14.6089 10.7357 14.6131C10.7431 14.6313 10.7559 14.6716 10.7667 14.7521C10.7903 14.9277 10.7916 15.1727 10.7916 15.5832L10.7916 22.6665C10.7916 23.077 10.7903 23.322 10.7667 23.4976C10.7559 23.5781 10.7431 23.6184 10.7357 23.6365C10.7339 23.6407 10.7326 23.6435 10.7317 23.6451L10.7306 23.6471L10.7286 23.6483C10.727 23.6491 10.7242 23.6505 10.72 23.6522C10.7018 23.6597 10.6615 23.6724 10.5811 23.6832C10.4055 23.7068 10.1605 23.7082 9.74997 23.7082H9.3333C8.92279 23.7082 8.67779 23.7068 8.50219 23.6832C8.42172 23.6724 8.38142 23.6597 8.36327 23.6522C8.35906 23.6505 8.3563 23.6491 8.35469 23.6483L8.35266 23.6471L8.35152 23.6451C8.35067 23.6435 8.34933 23.6407 8.3476 23.6365C8.34013 23.6184 8.32739 23.5781 8.31657 23.4976C8.29296 23.322 8.29163 23.077 8.29163 22.6665L8.29163 15.5832C8.29163 15.1727 8.29296 14.9277 8.31657 14.7521C8.32739 14.6716 8.34013 14.6313 8.3476 14.6131C8.34933 14.6089 8.35067 14.6062 8.35152 14.6046L8.35266 14.6025Z" fill="white"/>
<path fill-rule="evenodd" clip-rule="evenodd" d="M15.546 13.2915C15.7873 13.2915 16.7592 13.2915 16.9437 13.3084C17.1432 13.3266 17.3605 13.3687 17.5697 13.4911C17.7858 13.6175 17.9656 13.7974 18.092 14.0134L18.102 14.0308C18.7601 13.5661 19.5545 13.2917 20.4139 13.2917C22.6599 13.2917 24.9583 15.2036 24.9583 17.6667L24.9572 22.2878C24.9572 22.6484 24.9571 22.979 24.9209 23.248C24.881 23.5441 24.7873 23.8572 24.5298 24.1146C24.2723 24.372 23.9592 24.4657 23.663 24.5055C23.3941 24.5417 23.0634 24.5417 22.7029 24.5416H22.2126C21.852 24.5417 21.5213 24.5417 21.2523 24.5055C20.956 24.4657 20.6429 24.372 20.3854 24.1145C20.1279 23.857 20.0342 23.5438 19.9944 23.2476C19.9582 22.9786 19.9582 22.6479 19.9583 22.2872L19.9583 18.4999C19.9583 18.1187 19.6762 17.8749 19.4065 17.8749C18.9755 17.8749 18.7438 18.0402 18.5846 18.3046C18.3973 18.6155 18.2917 19.1072 18.2917 19.7499L18.2917 22.7038C18.2917 23.0645 18.2917 23.3952 18.2556 23.6642C18.2157 23.9604 18.122 24.2735 17.8645 24.531C17.607 24.7886 17.2939 24.8823 16.9976 24.9221C16.7286 24.9583 16.3979 24.9582 16.0373 24.9582H15.546C15.1853 24.9582 14.8546 24.9583 14.5856 24.9221C14.2894 24.8823 13.9763 24.7886 13.7188 24.531C13.4612 24.2735 13.3675 23.9604 13.3277 23.6642C13.2915 23.3952 13.2916 23.0645 13.2916 22.7038L13.2916 15.5459C13.2916 15.1852 13.2915 14.8545 13.3277 14.5855C13.3675 14.2893 13.4612 13.9762 13.7188 13.7186C13.9763 13.4611 14.2894 13.3674 14.5856 13.3276C14.8546 13.2914 15.1853 13.2915 15.546 13.2915ZM15.5833 14.5415C15.1728 14.5415 14.9278 14.5428 14.7522 14.5664C14.6958 14.5642 14.5797 14.5983 14.5666 14.7521C14.543 14.9277 14.5416 15.1727 14.5416 15.5832L14.5416 22.6665C14.5416 23.077 14.543 23.322 14.5666 23.4976C14.5766 23.5992 14.6945 23.6637 14.7522 23.6832C14.9278 23.7068 15.1728 23.7082 15.5833 23.7082H16C16.4105 23.7082 16.6555 23.7068 16.8311 23.6832C16.8884 23.6688 17.0058 23.6114 17.0167 23.4976C17.0403 23.322 17.0416 23.077 17.0416 22.6665L17.0417 19.7499C17.0417 19.012 17.156 18.2537 17.5138 17.6597C17.8995 17.0193 18.5378 16.6249 19.4065 16.6249C20.4366 16.6249 21.2083 17.5005 21.2083 18.4999V22.2499C21.2083 22.6604 21.2096 22.9054 21.2332 23.081C21.2332 23.2128 21.3128 23.2348 21.375 23.2521C21.3914 23.2566 21.4066 23.2608 21.4188 23.2667C21.5944 23.2903 21.8394 23.2916 22.2499 23.2916L22.6656 23.2916C23.076 23.2916 23.3209 23.2903 23.4965 23.2667C23.5543 23.2452 23.6724 23.1781 23.6821 23.0811C23.7057 22.9056 23.7071 22.6606 23.7072 22.2502L23.7083 17.6666C23.7082 15.9876 22.0672 14.5417 20.4139 14.5417C19.516 14.5417 18.7036 14.9807 18.1641 15.6899C18.0017 15.9033 17.7212 15.9894 17.467 15.9037C17.2128 15.818 17.0417 15.5797 17.0417 15.3115C17.0417 15.0373 17.041 14.874 17.03 14.7535C17.0232 14.6275 16.8936 14.5674 16.8297 14.5532C16.7092 14.5421 16.5458 14.5415 16.2717 14.5415L15.5833 14.5415Z" fill="white"/>
</svg>
