<svg width="132" height="58" viewBox="0 0 132 58" fill="none" xmlns="http://www.w3.org/2000/svg">
<rect width="132" height="58" fill="white"/>
<path d="M11.2887 34C9.59467 34 8.90867 33.314 8.90867 31.844V31.676H8.83867C8.55867 32.712 7.97067 33.146 7.00467 33.146C5.71667 33.146 5.00267 32.418 5.00267 31.172C5.00267 29.898 5.74467 29.1 7.35467 28.246L8.83867 27.462V26.72H10.1127V31.536C10.1127 32.208 10.4347 32.418 11.1627 32.418H11.6247V33.664L11.2887 34ZM7.31267 31.564C8.43267 31.564 8.83867 31.326 8.83867 30.612V28.722L7.57867 29.366C6.58467 29.884 6.15067 30.22 6.15067 30.794C6.15067 31.34 6.45867 31.564 7.31267 31.564ZM9.39867 25.586C8.97867 25.586 8.69867 25.334 8.69867 24.788C8.69867 24.228 8.97867 23.99 9.39867 23.99H9.60867C10.0287 23.99 10.3227 24.228 10.3227 24.788C10.3227 25.334 10.0287 25.586 9.60867 25.586H9.39867ZM7.42467 25.586C7.00467 25.586 6.72467 25.334 6.72467 24.788C6.72467 24.228 7.00467 23.99 7.42467 23.99H7.63467C8.05467 23.99 8.34867 24.228 8.34867 24.788C8.34867 25.334 8.05467 25.586 7.63467 25.586H7.42467ZM23.721 34C23.035 34 22.531 33.888 22.083 33.51C21.537 33.846 20.781 34 19.829 34H15.741C14.369 34 13.627 33.496 13.389 32.404H13.305C13.081 33.552 12.535 34 11.289 34V32.754L11.625 32.418H12.087C12.871 32.418 13.249 32.054 13.249 31.312V30.304H14.467V31.312C14.467 31.816 14.607 32.138 14.929 32.292L15.615 31.116C16.987 28.736 18.401 27.938 20.165 27.938C22.139 27.938 23.231 29.1 23.231 31.018C23.231 31.536 23.161 31.984 23.021 32.348C23.245 32.404 23.469 32.418 23.721 32.418H24.057V33.664L23.721 34ZM19.829 32.418C21.383 32.418 22.069 32.082 22.069 31.046C22.069 30.038 21.509 29.534 20.375 29.534H19.955C18.387 29.534 17.561 29.898 16.581 31.41L15.979 32.334L16.021 32.418H19.829ZM23.7167 34V32.754L24.0527 32.418H24.5147C25.2987 32.418 25.6767 32.054 25.6767 31.312V29.184H26.8947V31.312C26.8947 32.068 27.2447 32.418 27.9867 32.418H28.5187V33.664L28.1687 34C26.7967 34 26.0547 33.496 25.8167 32.404H25.7327C25.5087 33.552 24.9627 34 23.7167 34ZM26.1667 27.756C25.7467 27.756 25.4667 27.504 25.4667 26.958C25.4667 26.398 25.7467 26.16 26.1667 26.16H26.3767C26.7967 26.16 27.0907 26.398 27.0907 26.958C27.0907 27.504 26.7967 27.756 26.3767 27.756H26.1667ZM28.1874 34V32.754L28.5234 32.418C29.0974 32.418 29.4054 32.39 29.6714 32.264C29.6434 32.11 29.6294 31.956 29.6294 31.774C29.6294 30.738 30.3014 29.87 31.6174 29.044L32.3874 28.568H33.8014L34.8514 31.382C35.1594 32.208 35.3974 32.418 36.0274 32.418H36.3634V33.664L36.0274 34C35.0054 34 34.4734 33.72 34.0254 32.964L33.9414 32.978V34H32.2194C30.9734 34 30.1754 33.552 29.8254 32.782H29.7414C29.4894 33.608 29.0274 34 28.1874 34ZM30.7074 31.62C30.7074 32.18 31.1694 32.418 32.0094 32.418H33.7594C33.6894 32.264 33.6334 32.096 33.5634 31.914L32.8214 29.926L31.9814 30.346C31.2394 30.724 30.7074 31.13 30.7074 31.62ZM36.0214 34V32.754L36.3574 32.418H36.8474C37.6594 32.418 37.9534 32.068 37.9534 31.312V23.64H39.2694V31.312C39.2694 33.146 38.5694 34 36.8474 34H36.0214ZM41.2062 34V23.64H42.5082V34H41.2062ZM45.9491 37.36V35.778H46.4811C48.3711 35.778 48.9871 34.77 48.9871 33.258C48.9871 32.754 48.9171 32.208 48.8331 31.662L48.5391 29.968L49.7431 29.744L49.9391 30.92C50.0931 31.802 50.1771 32.586 50.1771 33.244C50.1771 35.554 49.1271 37.36 46.4951 37.36H45.9491ZM54.2549 34C52.4209 34 51.6789 33.314 51.6789 31.536V23.64H52.9809V31.41C52.9809 32.18 53.3309 32.418 54.1569 32.418H54.6189V33.664L54.2689 34H54.2549ZM54.287 34V32.754L54.623 32.418H56.891L56.905 32.362L55.197 30.248V28.624C56.051 28.204 57.101 27.952 58.039 27.952C59.943 27.952 60.923 28.694 60.923 30.094C60.923 31.088 60.503 31.508 59.397 32.39L59.411 32.418H61.497V33.664L61.161 34H60.573C59.719 34 58.823 33.79 58.109 33.314C57.395 33.79 56.569 34 55.729 34H54.287ZM56.303 29.786V29.842L58.221 32.124L58.669 31.746C59.397 31.13 59.775 30.878 59.775 30.388C59.775 29.814 59.215 29.548 58.025 29.548C57.465 29.548 56.863 29.632 56.303 29.786ZM61.164 34V32.754L61.5 32.418H61.78C62.578 32.418 62.914 32.208 63.278 31.466L63.852 30.304L64.902 30.836L64.258 32.082L64.356 32.138C64.916 32.46 65.42 32.6 65.966 32.6C66.806 32.6 67.184 32.25 67.184 31.312V30.304H68.402V31.312C68.402 32.222 68.668 32.572 69.27 32.572H69.48C69.998 32.572 70.278 32.292 70.278 31.662C70.278 31.382 70.236 30.934 70.152 30.374L70.026 29.632L71.23 29.45L71.342 30.178C71.412 30.738 71.454 31.256 71.454 31.662C71.454 33.3 70.74 34.168 69.368 34.168C68.178 34.168 67.534 33.622 67.338 32.53H67.254C67.1 33.608 66.554 34.168 65.7 34.168C65.154 34.168 64.622 33.972 63.852 33.51L63.474 33.286C62.928 33.86 62.27 34 61.164 34ZM68.696 28.876C68.276 28.876 67.982 28.624 67.982 28.078C67.982 27.518 68.276 27.28 68.696 27.28H68.892C69.312 27.28 69.606 27.518 69.606 28.078C69.606 28.624 69.312 28.876 68.892 28.876H68.696ZM66.708 28.876C66.288 28.876 66.008 28.624 66.008 28.078C66.008 27.518 66.288 27.28 66.708 27.28H66.918C67.338 27.28 67.632 27.518 67.632 28.078C67.632 28.624 67.338 28.876 66.918 28.876H66.708ZM67.702 27.028C67.296 27.028 67.002 26.79 67.002 26.244C67.002 25.712 67.296 25.474 67.702 25.474H67.912C68.318 25.474 68.598 25.712 68.598 26.244C68.598 26.79 68.318 27.028 67.912 27.028H67.702Z" fill="#6C737F"/>
<path d="M127.966 35.6167C127.406 35.2784 126.386 34.7082 124.978 34.2347C122.947 33.5389 120.113 33.017 116.755 33.5872C115.626 33.7805 114.435 34.0994 113.198 34.5729C113.081 34.6213 112.964 34.6599 112.846 34.7082C112.214 34.9595 111.591 35.2688 110.96 35.607C110.418 35.897 109.885 36.2159 109.353 36.5638C108.134 37.3466 106.934 38.2357 105.769 39.2022C104.442 30.6106 105.092 22.6375 105.399 18.7234C105.399 18.7041 105.426 18.6944 105.444 18.7041C108.288 20.6176 107.493 25.962 106.889 27.4986C106.88 27.5276 106.916 27.547 106.943 27.5276C110.481 23.053 108.757 18.1049 108.026 16.8582C108.008 16.8292 108.044 16.8002 108.071 16.8195C108.586 17.2641 109.001 17.7376 109.353 18.2208C110.445 19.7188 110.851 21.3328 110.96 22.7631C111.014 23.5169 110.996 24.2127 110.96 24.8119C110.951 24.9762 110.942 25.1212 110.923 25.2662C110.923 25.2855 110.942 25.2951 110.96 25.2855C110.969 25.2855 110.978 25.2855 110.978 25.2758C111.934 23.2656 112.395 20.231 110.96 17.2834C110.571 16.4813 110.048 15.6888 109.353 14.9253C109.154 14.703 108.938 14.4904 108.712 14.2681C108.694 14.2488 108.712 14.2101 108.739 14.2198C108.956 14.2778 109.154 14.3454 109.353 14.4131C109.958 14.6354 110.49 14.9446 110.96 15.3215C112.034 16.172 112.765 17.3317 113.198 18.5494C113.559 19.5545 113.722 20.5886 113.722 21.5067C113.722 21.5454 113.767 21.5454 113.776 21.5164C114.444 18.8973 114.038 16.9162 113.198 15.4762C112.602 14.4421 111.781 13.6882 110.96 13.1567C110.4 12.7991 109.84 12.5479 109.353 12.3932C109.064 12.2966 108.811 12.2386 108.586 12.2096C108.549 12.2096 108.558 12.1516 108.595 12.1516C108.856 12.1226 109.109 12.113 109.353 12.1033C109.949 12.0936 110.481 12.1516 110.96 12.2386C111.907 12.4319 112.648 12.7798 113.198 13.1857C114.101 13.8332 114.552 14.5967 114.706 14.906C114.715 14.935 114.76 14.9156 114.76 14.8866C114.633 13.5046 114.038 12.4222 113.207 11.6491C112.566 11.0499 111.781 10.6343 110.969 10.383C110.436 10.2284 109.894 10.1414 109.362 10.1318C108.64 10.1221 107.945 10.2477 107.358 10.5183C107.331 10.528 107.313 10.499 107.322 10.47C107.845 9.66788 108.586 9.18467 109.362 8.92373C109.903 8.74977 110.454 8.68211 110.969 8.72077C111.465 8.74976 111.916 8.86573 112.287 9.04936C112.314 9.05902 112.332 9.03004 112.314 9.00105C111.907 8.50816 111.447 8.12158 110.969 7.83165C110.454 7.52239 109.912 7.33877 109.362 7.27112C107.927 7.09716 106.464 7.75434 105.489 9.32963C105.48 9.34896 105.453 9.34896 105.444 9.32963C105.255 8.97205 105.074 8.5758 104.912 8.16024C104.524 7.1938 104.208 6.1114 104.036 5.02899C104.027 4.99034 103.991 4.99034 103.991 5.02899C103.819 6.1114 103.494 7.20347 103.106 8.16991C102.935 8.58548 102.763 8.97205 102.574 9.31997C102.565 9.3393 102.538 9.3393 102.529 9.31997C100.832 6.56563 97.6452 6.62361 95.7045 9.00105C95.6864 9.02037 95.7045 9.05902 95.7315 9.04936C97.0224 8.39218 99.4686 8.58547 100.696 10.47C100.714 10.499 100.687 10.528 100.66 10.5183C98.7735 9.66788 95.8489 10.2187 94.2873 12.2096C93.7276 12.9151 93.3485 13.8139 93.2492 14.8866C93.2492 14.9156 93.2853 14.935 93.3034 14.906C93.4207 14.6644 93.7276 14.1425 94.2873 13.6109C95.199 12.7508 96.7877 11.881 99.4144 12.142C99.4505 12.1516 99.4505 12.1999 99.4235 12.1999C98.0785 12.3739 95.3073 13.6593 94.2873 16.5972C93.8359 17.8923 93.7186 19.5159 94.2241 21.5067C94.2331 21.5357 94.2782 21.5357 94.2782 21.4971C94.2782 21.4487 94.2782 21.4101 94.2873 21.3618C94.3143 18.6944 95.7406 15.1186 99.27 14.2101C99.2971 14.2005 99.3151 14.2391 99.2971 14.2584C95.3524 17.9696 95.7406 22.5505 97.0314 25.2565C97.0494 25.2855 97.0855 25.2758 97.0855 25.2468C96.914 23.198 96.7786 19.5545 99.938 16.8002C99.9651 16.7808 100.001 16.8098 99.9831 16.8388C99.252 18.0952 97.5279 23.0337 101.066 27.5083C101.084 27.5373 101.13 27.518 101.12 27.4793C100.525 25.9523 99.7304 20.5983 102.565 18.6847C102.583 18.6751 102.61 18.6847 102.61 18.7041C102.917 22.6181 103.567 30.5912 102.24 39.1828C99.956 37.3079 97.5459 35.665 95.1629 34.6986C94.865 34.5826 94.5761 34.4763 94.2963 34.37C91.832 33.5002 89.5753 33.2586 87.6075 33.3552C84.4482 33.5002 82.029 34.5149 80.7021 35.2204C80.4313 35.3654 80.2056 35.5007 80.0341 35.607C79.9619 35.6553 80.016 35.7616 80.0883 35.7327C80.2959 35.665 80.4945 35.5974 80.7021 35.5394C83.1303 34.8049 85.4321 34.6116 87.6075 34.8145C89.9815 35.0368 92.2111 35.7327 94.2963 36.7378C97.2209 38.1488 99.8658 40.1589 102.258 42.2851C98.8819 45.4357 96.0294 48.4993 94.2963 49.572C94.206 49.6203 94.1248 49.6783 94.0435 49.7267C93.6283 49.1178 92.9062 48.7699 92.1209 48.9535C91.4348 49.1178 90.8752 49.7073 90.7217 50.4322C90.5863 51.0797 90.7398 51.7852 91.0828 52.1524C92.0035 53.1382 93.0687 53.2058 94.2963 52.655C96.6342 51.6015 99.5408 48.2963 103.106 44.7978C103.404 44.5079 103.702 44.2083 104.009 43.9184C104.316 44.2083 104.614 44.4982 104.912 44.7882C106.527 46.3731 108.008 47.9194 109.362 49.2338C109.922 49.775 110.454 50.2775 110.969 50.7221C111.763 51.4179 112.512 51.9881 113.207 52.3844C114.57 53.1575 115.753 53.2541 116.764 52.2974C116.818 52.249 116.872 52.2007 116.926 52.1427C117.161 51.8915 117.432 51.07 117.287 50.4225C117.206 50.0456 117.016 49.7073 116.755 49.4464C116.52 49.2048 116.213 49.0212 115.888 48.9438C115.103 48.7602 114.381 49.1081 113.965 49.717C113.731 49.5913 113.478 49.4174 113.198 49.2144C112.557 48.7409 111.808 48.0741 110.96 47.2816C110.454 46.808 109.922 46.2861 109.353 45.7353C108.252 44.6625 107.042 43.4835 105.76 42.2754C106.898 41.2607 108.098 40.2749 109.353 39.3665C109.876 38.9896 110.409 38.6223 110.96 38.2744C111.691 37.8105 112.431 37.3853 113.198 36.989C114.345 36.3995 115.527 35.9066 116.755 35.5297C119.3 34.7469 122.035 34.486 124.978 34.9885C125.935 35.1528 126.91 35.3944 127.912 35.723C127.984 35.7713 128.038 35.665 127.966 35.6167Z" fill="#9DA4AE"/>
</svg>
