<svg width="56" height="56" viewBox="0 0 56 56" fill="none" xmlns="http://www.w3.org/2000/svg">
<path d="M0 28C0 12.536 12.536 0 28 0C43.464 0 56 12.536 56 28C56 43.464 43.464 56 28 56C12.536 56 0 43.464 0 28Z" fill="#F3FCF6"/>
<path fill-rule="evenodd" clip-rule="evenodd" d="M27.2406 16.2404C28.3285 15.1975 30.0054 15.1975 31.0933 16.2404C31.8104 16.9278 32.6988 17.8841 33.4132 18.9902C34.1212 20.0864 34.7086 21.4071 34.7086 22.8048C34.7086 25.4967 32.6121 28.2916 29.167 28.2916C25.7218 28.2916 23.6253 25.4967 23.6253 22.8048C23.6253 21.4071 24.2127 20.0864 24.9207 18.9902C25.6351 17.8841 26.5235 16.9278 27.2406 16.2404ZM29.8823 17.5037C29.4714 17.1098 28.8625 17.1098 28.4516 17.5037C27.7888 18.139 27.0043 18.9897 26.3908 19.9397C25.7708 20.8995 25.3753 21.8839 25.3753 22.8048C25.3753 24.6598 26.8131 26.5416 29.167 26.5416C31.5208 26.5416 32.9586 24.6598 32.9586 22.8048C32.9586 21.8839 32.5631 20.8995 31.9431 19.9397C31.3296 18.9897 30.5451 18.139 29.8823 17.5037Z" fill="#067647"/>
<path d="M17.792 30.3333C17.792 29.85 18.1837 29.4583 18.667 29.4583H21.4609C21.9352 29.4583 22.404 29.565 22.8306 29.7714L25.2129 30.9241C25.4002 31.0147 25.6083 31.0626 25.8204 31.0626H27.0368C28.0137 31.0626 28.8976 31.5238 29.4499 32.2475L34.2646 30.7682L34.2663 30.7677C35.5853 30.3576 36.9976 30.8509 37.8059 31.9703C38.531 32.9744 38.2508 34.4228 37.1621 35.051L28.3939 40.1101C27.6298 40.551 26.7239 40.6601 25.8787 40.4093L18.4177 38.1953C17.9544 38.0579 17.6903 37.5709 17.8278 37.1076C17.9652 36.6443 18.4522 36.3802 18.9155 36.5176L26.3765 38.7316C26.7582 38.8448 27.1681 38.7969 27.5193 38.5943L36.2875 33.5352C36.4524 33.4401 36.5225 33.1823 36.3872 32.9948C36.0059 32.4668 35.3655 32.2582 34.7851 32.439L34.7818 32.44L30.0402 33.8969C30.0414 33.9307 30.042 33.9647 30.042 33.9989C30.042 34.4552 29.7313 34.8284 29.3229 34.9414L26.3585 35.761C25.6229 35.9643 24.8351 35.894 24.1484 35.5617L21.6016 34.3295C21.1666 34.1191 20.9846 33.5958 21.1951 33.1608C21.4056 32.7258 21.9288 32.5438 22.3638 32.7542L24.9105 33.9864C25.2132 34.1329 25.5642 34.1649 25.8921 34.0743L28.1487 33.4503C27.9433 33.0787 27.5344 32.8126 27.0368 32.8126H25.8204C25.3461 32.8126 24.8772 32.7058 24.4507 32.4994L22.0684 31.3467C21.8811 31.2561 21.673 31.2083 21.4609 31.2083H18.667C18.1837 31.2083 17.792 30.8165 17.792 30.3333Z" fill="#067647"/>
</svg>
