<svg width="56" height="56" viewBox="0 0 56 56" fill="none" xmlns="http://www.w3.org/2000/svg">
<path d="M0 28C0 12.536 12.536 0 28 0C43.464 0 56 12.536 56 28C56 43.464 43.464 56 28 56C12.536 56 0 43.464 0 28Z" fill="#F3FCF6"/>
<path d="M28.875 18.6667C28.875 18.1835 28.4833 17.7917 28 17.7917C27.5168 17.7917 27.125 18.1835 27.125 18.6667V27.1251H18.6667C18.1834 27.1251 17.7917 27.5168 17.7917 28.0001C17.7917 28.4833 18.1834 28.8751 18.6667 28.8751H27.125V37.3334C27.125 37.8167 27.5168 38.2084 28 38.2084C28.4833 38.2084 28.875 37.8167 28.875 37.3334V28.8751H37.3334C37.8166 28.8751 38.2084 28.4833 38.2084 28.0001C38.2084 27.5168 37.8166 27.1251 37.3334 27.1251H28.875V18.6667Z" fill="#067647"/>
</svg>
