<svg width="32" height="32" viewBox="0 0 32 32" fill="none" xmlns="http://www.w3.org/2000/svg">
<path d="M4 0.5H28C29.933 0.5 31.5 2.067 31.5 4V28C31.5 29.933 29.933 31.5 28 31.5H4C2.067 31.5 0.5 29.933 0.5 28V4C0.5 2.067 2.067 0.5 4 0.5Z" stroke="white" stroke-opacity="0.3"/>
<path d="M15.7916 12.2498C15.7916 11.9047 15.5118 11.6248 15.1666 11.6248C14.8214 11.6248 14.5416 11.9047 14.5416 12.2498V14.5415H12.25C11.9048 14.5415 11.625 14.8213 11.625 15.1665C11.625 15.5117 11.9048 15.7915 12.25 15.7915H14.5416V18.0832C14.5416 18.4283 14.8214 18.7082 15.1666 18.7082C15.5118 18.7082 15.7916 18.4283 15.7916 18.0832V15.7915H18.0833C18.4285 15.7915 18.7083 15.5117 18.7083 15.1665C18.7083 14.8213 18.4285 14.5415 18.0833 14.5415H15.7916V12.2498Z" fill="white"/>
<path fill-rule="evenodd" clip-rule="evenodd" d="M7.04163 15.1665C7.04163 10.6792 10.6793 7.0415 15.1666 7.0415C19.6539 7.0415 23.2916 10.6792 23.2916 15.1665C23.2916 17.1852 22.5554 19.0319 21.3369 20.4529L24.7752 23.8912C25.0193 24.1353 25.0193 24.531 24.7752 24.7751C24.5312 25.0192 24.1354 25.0192 23.8914 24.7751L20.453 21.3368C19.032 22.5553 17.1853 23.2915 15.1666 23.2915C10.6793 23.2915 7.04163 19.6538 7.04163 15.1665ZM15.1666 8.2915C11.3697 8.2915 8.29163 11.3695 8.29163 15.1665C8.29163 18.9635 11.3697 22.0415 15.1666 22.0415C18.9636 22.0415 22.0416 18.9635 22.0416 15.1665C22.0416 11.3695 18.9636 8.2915 15.1666 8.2915Z" fill="white"/>
</svg>
